<svg width="85" height="85" viewBox="0 0 85 85" fill="none" xmlns="http://www.w3.org/2000/svg">
<path d="M74.3678 38.9583C74.3726 40.6229 74.3749 42.3937 74.3749 44.2708C74.3749 60.1304 74.3749 68.0637 69.4485 72.9902C64.522 77.9167 56.5922 77.9167 40.7291 77.9167C24.8695 77.9167 16.9362 77.9167 12.0097 72.9902C7.08325 68.0637 7.08325 60.134 7.08325 44.2708C7.08325 28.4112 7.08325 20.4779 12.0097 15.5515C16.9362 10.625 24.866 10.625 40.7291 10.625C42.6062 10.625 44.377 10.6274 46.0416 10.6321" stroke="white" stroke-width="1.5" stroke-linecap="round" stroke-linejoin="round"/>
<path d="M15.9375 76.1445C31.4217 57.6393 48.7829 33.2337 74.3679 49.7308M65.5208 7.08203L66.4346 9.55057C67.6317 12.7877 68.2302 14.4062 69.4096 15.5856C70.5925 16.7685 72.211 17.367 75.4481 18.5641L77.9167 19.4779L75.4481 20.3916C72.211 21.5887 70.5925 22.1872 69.4131 23.3666C68.2302 24.5495 67.6317 26.1681 66.4346 29.4052L65.5208 31.8737L64.6071 29.4052C63.41 26.1681 62.8115 24.5495 61.6321 23.3702C60.4492 22.1872 58.8306 21.5887 55.5935 20.3916L53.125 19.4779L55.5935 18.5641C58.8306 17.367 60.4492 16.7685 61.6285 15.5891C62.8115 14.4062 63.41 12.7877 64.6071 9.55057L65.5208 7.08203Z" stroke="white" stroke-width="1.5" stroke-linecap="round" stroke-linejoin="round"/>
</svg>
